<svg xmlns="http://www.w3.org/2000/svg" version="1.1" xmlns:xlink="http://www.w3.org/1999/xlink" xmlns:svgjs="http://svgjs.dev/svgjs" width="2000" height="1247" viewBox="0 0 2000 1247"><g transform="matrix(1,0,0,1,-1.2121212121212466,0.504858299595071)"><svg viewBox="0 0 396 247" data-background-color="#ffffff" preserveAspectRatio="xMidYMid meet" height="1247" width="2000" xmlns="http://www.w3.org/2000/svg" xmlns:xlink="http://www.w3.org/1999/xlink"><g id="tight-bounds" transform="matrix(1,0,0,1,0.2400000000000091,-0.09999999999999432)"><svg viewBox="0 0 395.52 247.2" height="247.2" width="395.52"><g><svg></svg></g><g><svg viewBox="0 0 395.52 247.2" height="247.2" width="395.52"><g><path xmlns="http://www.w3.org/2000/svg" d="M55.039 247.2l26.403-45.732 7.584 0-22.403 38.804h262.274l-22.403-38.804 7.584 0 26.403 45.732zM197.76 0l26.403 45.732-7.583 0-18.82-32.596-18.82 32.596-7.583 0z" fill="#ffffff" fill-rule="nonzero" stroke="none" stroke-width="1" stroke-linecap="butt" stroke-linejoin="miter" stroke-miterlimit="10" stroke-dasharray="" stroke-dashoffset="0" font-family="none" font-weight="none" font-size="none" text-anchor="none" style="mix-blend-mode: normal" data-fill-palette-color="tertiary"></path></g><g transform="matrix(1,0,0,1,34.630609756097556,67.97999999999999)"><svg viewBox="0 0 326.25878048780487 111.24" height="111.24" width="326.25878048780487"><g><svg viewBox="0 0 326.25878048780487 111.24" height="111.24" width="326.25878048780487"><g><svg viewBox="0 0 326.25878048780487 111.24" height="111.24" width="326.25878048780487"><g><svg viewBox="0 0 326.25878048780487 111.24" height="111.24" width="326.25878048780487"><g id="textblocktransform"><svg viewBox="0 0 326.25878048780487 111.24" height="111.24" width="326.25878048780487" id="textblock"><g><svg viewBox="0 0 326.25878048780487 111.24" height="111.24" width="326.25878048780487"><g transform="matrix(1,0,0,1,0,0)"><svg width="326.25878048780487" viewBox="0.7799999713897705 -35.54999923706055 105.68000030517578 36.040000915527344" height="111.24" data-palette-color="#636365"><path d="M15.65-33.94L3.08 0 0.78 0 14.14-35.55 15.87-35.55 15.65-33.94ZM27.49 0L14.89-33.94 14.67-35.55 16.38-35.55 29.76 0 27.49 0ZM24.51-12.23L24.51-10.3 6.15-10.3 6.15-12.23 24.51-12.23ZM36.4-20.78L36.4 0 34.27 0 34.27-26.42 36.35-26.42 36.4-20.78ZM35.96-15.16L34.96-16.24Q35.23-19.09 36.57-21.52 37.91-23.95 40.16-25.43 42.4-26.9 45.38-26.9L45.38-26.9Q48.04-26.9 49.91-25.92 51.78-24.93 52.78-22.79 53.78-20.65 53.78-17.14L53.78-17.14 53.78 0 51.68 0 51.68-17.16Q51.68-20.21 50.84-21.91 50-23.61 48.5-24.3 46.99-25 44.99-25L44.99-25Q42.7-25 41.03-23.99 39.35-22.97 38.25-21.41 37.16-19.85 36.59-18.18 36.03-16.5 35.96-15.16L35.96-15.16ZM78.02-4.86L78.02-18.48Q78.02-21.56 76.09-23.29 74.16-25.02 70.58-25.02L70.58-25.02Q68.38-25.02 66.61-24.24 64.84-23.46 63.84-22.12 62.84-20.78 62.84-19.14L62.84-19.14 60.71-19.17Q60.71-21.19 61.97-22.95 63.23-24.71 65.47-25.81 67.72-26.9 70.65-26.9L70.65-26.9Q73.43-26.9 75.58-25.96 77.73-25.02 78.94-23.14 80.15-21.26 80.15-18.43L80.15-18.43 80.15-5.42Q80.15-4.03 80.34-2.58 80.54-1.12 80.88-0.27L80.88-0.27 80.88 0 78.56 0Q78.29-0.9 78.16-2.25 78.02-3.59 78.02-4.86L78.02-4.86ZM78.66-15.06L78.71-13.26 72.41-13.26Q67.6-13.26 64.88-11.52 62.15-9.79 62.15-6.93L62.15-6.93Q62.15-4.66 63.9-3.05 65.64-1.44 68.53-1.44L68.53-1.44Q71.14-1.44 73.14-2.36 75.14-3.27 76.5-4.83 77.85-6.4 78.46-8.4L78.46-8.4 79.39-6.96Q79-5.66 78.12-4.36 77.24-3.05 75.86-1.95 74.48-0.85 72.61-0.18 70.75 0.49 68.35 0.49L68.35 0.49Q65.84 0.49 63.96-0.45 62.08-1.39 61.05-3.06 60.03-4.74 60.03-6.84L60.03-6.84Q60.03-10.57 63.26-12.82 66.5-15.06 72.16-15.06L72.16-15.06 78.66-15.06ZM104.34-6.59L104.34-6.59Q104.34-7.74 103.74-8.87 103.14-10.01 101.52-11 99.89-11.99 96.77-12.65L96.77-12.65Q93.82-13.28 91.79-14.15 89.76-15.01 88.73-16.42 87.69-17.82 87.69-19.97L87.69-19.97Q87.69-21.9 88.79-23.46 89.89-25.02 91.92-25.96 93.96-26.9 96.77-26.9L96.77-26.9Q99.77-26.9 101.92-25.92 104.07-24.93 105.22-23.18 106.36-21.44 106.36-19.19L106.36-19.19 104.24-19.19Q104.24-21.46 102.31-23.23 100.38-25 96.77-25L96.77-25Q94.3-25 92.77-24.26 91.23-23.51 90.52-22.38 89.81-21.24 89.81-20.04L89.81-20.04Q89.81-18.8 90.36-17.79 90.91-16.77 92.53-15.95 94.16-15.14 97.36-14.4L97.36-14.4Q100.53-13.7 102.53-12.68 104.53-11.67 105.5-10.22 106.46-8.76 106.46-6.67L106.46-6.67Q106.46-4.57 105.29-2.94 104.12-1.32 101.99-0.42 99.87 0.49 96.94 0.49L96.94 0.49Q93.67 0.49 91.41-0.56 89.15-1.61 87.99-3.34 86.83-5.08 86.83-7.06L86.83-7.06 88.96-7.06Q89.1-4.91 90.35-3.67 91.59-2.44 93.38-1.93 95.16-1.42 96.94-1.42L96.94-1.42Q99.38-1.42 101.02-2.16 102.65-2.91 103.5-4.1 104.34-5.3 104.34-6.59Z" opacity="1" transform="matrix(1,0,0,1,0,0)" fill="#ffffff" class="wordmark-text-0" data-fill-palette-color="primary" id="text-0"></path></svg></g></svg></g></svg></g></svg></g></svg></g></svg></g></svg></g></svg></g><defs></defs></svg><rect width="395.52" height="247.2" fill="none" stroke="none" visibility="hidden"></rect></g></svg></g></svg>